<svg width="27" height="27" viewBox="0 0 27 27" fill="none" xmlns="http://www.w3.org/2000/svg">
<path d="M24.2682 0.140625H2.10681C1.59777 0.140625 1.10959 0.342837 0.749652 0.702777C0.389712 1.06272 0.1875 1.55089 0.1875 2.05993V24.2213C0.1875 24.7303 0.389712 25.2185 0.749652 25.5785C1.10959 25.9384 1.59777 26.1406 2.10681 26.1406H24.2682C24.7772 26.1406 25.2654 25.9384 25.6254 25.5785C25.9853 25.2185 26.1875 24.7303 26.1875 24.2213V2.05993C26.1875 1.55089 25.9853 1.06272 25.6254 0.702777C25.2654 0.342837 24.7772 0.140625 24.2682 0.140625ZM7.93694 22.2894H4.02792V9.87257H7.93694V22.2894ZM5.97972 8.15187C5.53631 8.14937 5.10358 8.01559 4.73613 7.76739C4.36868 7.51919 4.08299 7.16771 3.91512 6.75729C3.74724 6.34688 3.7047 5.89594 3.79287 5.46137C3.88103 5.02681 4.09595 4.6281 4.4105 4.31556C4.72505 4.00302 5.12513 3.79067 5.56026 3.7053C5.99538 3.61992 6.44604 3.66536 6.85536 3.83586C7.26469 4.00637 7.61433 4.2943 7.86017 4.66333C8.10601 5.03237 8.23702 5.46596 8.23667 5.90938C8.24085 6.20625 8.18522 6.50092 8.0731 6.77584C7.96097 7.05075 7.79465 7.30026 7.58404 7.50953C7.37342 7.71879 7.12284 7.88352 6.84721 7.99388C6.57158 8.10423 6.27656 8.15796 5.97972 8.15187ZM22.3453 22.3002H18.4381V15.5167C18.4381 13.5162 17.5876 12.8987 16.4899 12.8987C15.3307 12.8987 14.1932 13.7725 14.1932 15.5673V22.3002H10.2842V9.88159H14.0433V11.6023H14.0939C14.4713 10.8385 15.7929 9.53312 17.8097 9.53312C19.9908 9.53312 22.3471 10.8277 22.3471 14.6194L22.3453 22.3002Z" fill="white"/>
</svg>
