<svg width="27" height="22" viewBox="0 0 27 22" fill="none" xmlns="http://www.w3.org/2000/svg">
<path d="M8.36398 21.7035C18.1753 21.7035 23.5417 13.5749 23.5417 6.52574C23.5417 6.29486 23.5417 6.06502 23.5261 5.83622C24.5701 5.08109 25.4713 4.1461 26.1875 3.07502C25.214 3.50662 24.1812 3.78954 23.1237 3.9143C24.2373 3.24771 25.0708 2.19915 25.4689 0.963821C24.4218 1.58523 23.2762 2.02313 22.0816 2.25862C21.2773 1.40341 20.2136 0.837116 19.055 0.647362C17.8965 0.457609 16.7077 0.654978 15.6726 1.20893C14.6376 1.76288 13.8139 2.64252 13.3291 3.71175C12.8444 4.78097 12.7255 5.98016 12.9909 7.12374C10.8701 7.01735 8.7954 6.46619 6.90141 5.50603C5.00742 4.54586 3.33649 3.19815 1.9971 1.55038C1.31496 2.72471 1.10603 4.11488 1.41286 5.43784C1.71969 6.7608 2.5192 7.91708 3.64862 8.67126C2.79967 8.64639 1.9692 8.41736 1.2275 8.00358V8.07118C1.22784 9.30277 1.65417 10.4963 2.43419 11.4494C3.21422 12.4025 4.2999 13.0565 5.5071 13.3003C4.72177 13.5145 3.89778 13.5458 3.09846 13.3918C3.43947 14.4517 4.10313 15.3785 4.99668 16.0427C5.89022 16.7069 6.96898 17.0753 8.08214 17.0963C6.97614 17.9657 5.70959 18.6084 4.35495 18.9878C3.0003 19.3672 1.58415 19.4758 0.1875 19.3074C2.62699 20.8728 5.46542 21.7032 8.36398 21.6994" fill="#FAFAFA"/>
</svg>
