<svg width="27" height="20" viewBox="0 0 27 20" fill="none" xmlns="http://www.w3.org/2000/svg">
<path d="M25.6693 3.84145C25.5223 3.28832 25.2326 2.78349 24.8292 2.37749C24.4258 1.9715 23.9228 1.67858 23.3706 1.52804C21.3379 0.981445 13.2129 0.981445 13.2129 0.981445C13.2129 0.981445 5.08789 0.981445 3.05516 1.52804C2.50298 1.67858 2.00002 1.9715 1.59662 2.37749C1.19322 2.78349 0.903522 3.28832 0.756527 3.84145C0.212891 5.88304 0.212891 10.1405 0.212891 10.1405C0.212891 10.1405 0.212891 14.398 0.756527 16.4396C0.903522 16.9927 1.19322 17.4976 1.59662 17.9036C2.00002 18.3096 2.50298 18.6025 3.05516 18.753C5.08789 19.2996 13.2129 19.2996 13.2129 19.2996C13.2129 19.2996 21.3379 19.2996 23.3706 18.753C23.9228 18.6025 24.4258 18.3096 24.8292 17.9036C25.2326 17.4976 25.5223 16.9927 25.6693 16.4396C26.2129 14.398 26.2129 10.1405 26.2129 10.1405C26.2129 10.1405 26.2129 5.88304 25.6693 3.84145Z" fill="#FAFAFA"/>
<path d="M10.5547 14.0065V6.27441L17.3501 10.1405L10.5547 14.0065Z" fill="#214E41"/>
</svg>
